<?xml version="1.0" encoding="utf-8"?>
<!-- Generator: Adobe Illustrator 16.0.0, SVG Export Plug-In . SVG Version: 6.00 Build 0)  -->
<!DOCTYPE svg PUBLIC "-//W3C//DTD SVG 1.1//EN" "http://www.w3.org/Graphics/SVG/1.1/DTD/svg11.dtd">
<svg version="1.1" id="Ebene_1" xmlns="http://www.w3.org/2000/svg" xmlns:xlink="http://www.w3.org/1999/xlink" x="0px" y="0px"
	 width="682px" height="682px" viewBox="0 0 682 682" enable-background="new 0 0 682 682" xml:space="preserve">
<path fill="#F1C6AD" d="M160.188,50.719v37.393l-34.244,13.3l4.535-31.372L160.188,50.719z"/>
<path fill="#F1C6AD" d="M556.056,101.412l-34.252-21.015V50.731l34.252,19.309V101.412z"/>
<path fill="#423E4F" d="M529.374,558.859c0-59.005-84.339-106.841-188.378-106.841c-104.031,0-188.37,47.836-188.37,106.841
	c0,59.001,84.339,106.833,188.37,106.833C445.035,665.692,529.374,617.86,529.374,558.859z"/>
<path fill="#E8A882" d="M65.047,506.164C38.948,404.193,90.276,148.542,141.73,72.67s116.858-35.758,199.266-35.758
	c82.416,0,147.82-40.113,199.274,35.758c51.453,75.871,102.782,331.523,76.683,433.494H65.047z"/>
<path fill="#DE8957" d="M180.321,72.67c20.316-29.959,42.81-41.826,67.66-45.225c-40.69-3.922-75.902,0.468-106.251,45.225
	C90.276,148.542,38.948,404.193,65.047,506.164h38.595C77.539,404.193,128.868,148.542,180.321,72.67z"/>
<path fill="#5C586F" d="M391.86,276.709c38.58,6.131,75.859,19.228,109.818,38.72c47.118,27.041,86.978,65.866,115.274,112.25
	c36.218,59.403,17.439,136.913-41.951,173.132c-47.2,28.788-105.854,22.829-146.123-10.635
	c-12.32-10.243-26.275-18.068-41.163-23.336c-14.888-5.272-30.704-7.98-46.712-7.98c-32.496,0-63.719,11.684-88.929,32.18
	c-22.63,18.392-50.888,28.214-79.613,28.214c-22.357,0-44.972-5.939-65.459-18.427C47.611,564.6,28.829,487.078,65.036,427.694
	c28.3-46.399,68.171-85.217,115.29-112.265c33.955-19.493,71.239-32.589,109.818-38.72H391.86z"/>
<path fill="#4F4C5F" d="M198.187,593.528c-22.353,0-44.968-5.943-65.456-18.435C73.726,539.102,67.51,436.963,102.94,377.396
	c-14.201,15.469-26.931,32.3-37.904,50.29c-36.207,59.392-17.424,136.913,41.967,173.14c20.488,12.491,43.102,18.427,65.459,18.427
	c28.726,0,56.983-9.822,79.613-28.214c2.927-2.381,5.943-4.629,9.019-6.768C238.885,590.359,214.479,593.528,198.187,593.528z"/>
<g>
	<path fill="#423E4F" d="M391.86,276.709c-2.053,26.291-24.043,46.985-50.864,46.985c-26.813,0-48.804-20.694-50.856-46.985
		c16.757-2.669,33.775-4.031,50.856-4.031C358.085,272.678,375.092,274.036,391.86,276.709z"/>
	<path fill="#423E4F" d="M191.123,458.289c0,5.698-4.612,10.311-10.306,10.311s-10.31-4.612-10.31-10.311
		c0-5.693,4.616-10.31,10.31-10.31S191.123,452.596,191.123,458.289z"/>
	<path fill="#423E4F" d="M170.507,483.581c0,5.693-4.617,10.307-10.311,10.307c-5.697,0-10.31-4.613-10.31-10.307
		s4.613-10.314,10.31-10.314C165.89,473.267,170.507,477.888,170.507,483.581z"/>
	<path fill="#423E4F" d="M211.748,483.581c0,5.693-4.617,10.307-10.31,10.307c-5.694,0-10.307-4.613-10.307-10.307
		s4.613-10.314,10.307-10.314C207.131,473.267,211.748,477.888,211.748,483.581z"/>
	<path fill="#423E4F" d="M511.493,458.289c0,5.698-4.616,10.311-10.31,10.311c-5.694,0-10.307-4.612-10.307-10.311
		c0-5.693,4.612-10.31,10.307-10.31C506.877,447.979,511.493,452.596,511.493,458.289z"/>
	<path fill="#423E4F" d="M532.114,483.581c0,5.693-4.613,10.307-10.311,10.307c-5.693,0-10.311-4.613-10.311-10.307
		s4.617-10.314,10.311-10.314C527.501,473.267,532.114,477.888,532.114,483.581z"/>
	<path fill="#423E4F" d="M490.869,483.581c0,5.693-4.612,10.307-10.307,10.307c-5.693,0-10.31-4.613-10.31-10.307
		s4.616-10.314,10.31-10.314C486.257,473.267,490.869,477.888,490.869,483.581z"/>
</g>
<path fill="#F1C6AD" d="M160.196,50.731c-41.143,4.5-65.561-47.828-106.548,18.451c-40.991,66.283,5.834,122.981,39.543,126.896
	c33.709,3.918,64.937-59.816,32.753-94.665c5.206-11.239,10.494-20.944,15.785-28.742c5.959-8.792,12.113-16.031,18.458-21.951
	L160.196,50.731z"/>
<path fill="#F1C6AD" d="M521.804,50.731c41.144,4.5,65.561-47.828,106.548,18.451c40.991,66.283-5.834,122.981-39.543,126.896
	c-33.709,3.918-64.937-59.816-32.753-94.665c-5.206-11.239-10.494-20.944-15.785-28.742c-5.959-8.792-12.113-16.031-18.459-21.951
	L521.804,50.731z"/>
<path fill="#DE8957" d="M448.676,217.365c-19.992,0-39.984-4.624-58.204-13.865c-30.978-15.723-67.965-15.723-98.943,0
	c-36.445,18.49-79.961,18.49-116.406,0c-4.749-2.416-6.646-8.222-4.238-12.972c2.416-4.757,8.218-6.65,12.972-4.238
	c30.981,15.715,67.965,15.715,98.942,0c36.441-18.494,79.953-18.494,116.402,0c30.978,15.715,67.969,15.715,98.942,0
	c4.745-2.412,10.56-0.515,12.972,4.238c2.407,4.75,0.511,10.556-4.238,12.972C488.656,212.741,468.664,217.365,448.676,217.365z"/>
<path fill="#DE8957" d="M417.277,150.024c-14.596,0-29.198-3.375-42.506-10.127c-21.144-10.731-46.392-10.731-67.543,0
	c-26.615,13.507-58.396,13.503-85.011,0c-4.753-2.416-6.65-8.218-4.238-12.972c2.408-4.749,8.218-6.646,12.968-4.238
	c21.147,10.732,46.396,10.732,67.547,0c26.615-13.506,58.396-13.506,85.011,0c21.146,10.732,46.396,10.732,67.547,0
	c4.745-2.408,10.556-0.511,12.968,4.238c2.412,4.753,0.515,10.556-4.238,12.972C446.476,146.649,431.876,150.024,417.277,150.024z"
	/>
<path fill="#423E4F" d="M198.651,258.067c-5.331,0-9.646-4.32-9.646-9.647v-15.262c0-5.327,4.316-9.651,9.646-9.651
	c5.327,0,9.651,4.324,9.651,9.651v15.262C208.302,253.747,203.978,258.067,198.651,258.067z"/>
<path fill="#FF889E" d="M194.362,283.117h-20.644c-5.331,0-9.646-4.32-9.646-9.647c0-5.334,4.316-9.651,9.646-9.651h20.644
	c5.334,0,9.651,4.316,9.651,9.651C204.013,278.797,199.697,283.117,194.362,283.117z"/>
<path fill="#423E4F" d="M483.354,258.067c-5.331,0-9.647-4.32-9.647-9.647v-15.262c0-5.327,4.316-9.651,9.647-9.651
	c5.326,0,9.65,4.324,9.65,9.651v15.262C493.004,253.747,488.68,258.067,483.354,258.067z"/>
<path fill="#FF889E" d="M508.282,283.117h-20.645c-5.334,0-9.65-4.32-9.65-9.647c0-5.334,4.316-9.651,9.65-9.651h20.645
	c5.33,0,9.646,4.316,9.646,9.651C517.929,278.797,513.608,283.117,508.282,283.117z"/>
</svg>
